<svg width="75" height="79" viewBox="0 0 75 79" fill="none" xmlns="http://www.w3.org/2000/svg"><path d="M67.05 33.42c.38 2.17.6 4.44.6 6.8 0 18.52-11.77 31.68-29.53 31.68a29.4 29.4 0 0 1-11.78-2.46 30.7 30.7 0 0 1-9.98-7.02A32.64 32.64 0 0 1 9.69 51.9a33.9 33.9 0 0 1 0-24.8 32.56 32.56 0 0 1 6.67-10.52c2.86-3 6.25-5.4 9.98-7.02A29.4 29.4 0 0 1 38.12 7.1c8.3 0 15.24 3.22 20.57 8.44l-8.67 9.14v-.03a16.4 16.4 0 0 0-11.9-4.9c-10.15 0-18.4 9.04-18.4 19.73 0 10.7 8.25 19.74 18.4 19.74 9.2 0 15.47-5.54 16.76-13.16H38.12V33.42h28.93Z" fill="black"/></svg>