<svg width="136" height="30" viewBox="0 0 136 30" fill="none" xmlns="http://www.w3.org/2000/svg"><g clip-path="url(#clip0_1642_1501)"><path fill-rule="evenodd" clip-rule="evenodd" d="M15.59.08a14.92 14.92 0 0 1 14.74 18.86 2.5 2.5 0 1 1-4.8-1.31 9.94 9.94 0 1 0-9.73 7.3 2.5 2.5 0 0 1-.08 5A14.92 14.92 0 0 1 6.98 3.06l1.5 2-1.5-2a14.92 14.92 0 0 1 8.6-2.99Z" fill="#121920"/><path d="M27.16 24.71a3.78 3.78 0 1 1-7.56 0 3.78 3.78 0 0 1 7.56 0Z" fill="#F95A59"/><path fill-rule="evenodd" clip-rule="evenodd" d="M61.46 23.96h-4.98l-.7-.92c-.98.38-1.85.65-2.6.86-.76.17-1.57.27-2.5.27-3.03 0-5.4-.75-7.09-2.21-1.78-1.52-2.65-3.85-2.65-6.82 0-3.04.81-5.36 2.38-6.93 1.63-1.57 4.06-2.38 7.37-2.38 3.19 0 5.62.86 7.3 2.54A7.63 7.63 0 0 1 60.16 14c0 1.68-.06 2.92-.22 3.68a8.17 8.17 0 0 1-1.51 3.36l3.03 2.92Zm-5.69-8.99a6.8 6.8 0 0 0-1.03-3.95c-.86-1.3-2.27-1.95-4.1-1.95-1.74 0-3.1.49-3.96 1.52-.87.97-1.3 2.43-1.3 4.33 0 2.11.49 3.68 1.52 4.65.92.87 2.27 1.3 4.06 1.3 1.62 0 2.81-.48 3.62-1.46.81-1.03 1.2-2.49 1.2-4.44Z" fill="#F95A59"/><path fill-rule="evenodd" clip-rule="evenodd" d="M80.24 18.38a5.5 5.5 0 0 1-1.57 3.95 5.14 5.14 0 0 1-3.95 1.57H62.27v-3.19H72.6c.7 0 1.3-.16 1.73-.49.54-.38.81-.86.81-1.51 0-1.52-1.08-2.28-3.2-2.28h-5.19a6.09 6.09 0 0 1-3.95-1.4 4.36 4.36 0 0 1-1.68-3.58c0-1.57.54-2.86 1.68-3.84a6.31 6.31 0 0 1 4.38-1.46h11.97v3.03h-10.6c-.49 0-.98.22-1.4.6-.55.38-.77.86-.77 1.4 0 .6.22 1.14.7 1.52.5.43 1.03.6 1.68.6h5.74c1.79 0 3.2.48 4.22 1.4a4.7 4.7 0 0 1 1.52 3.68Z" fill="#F95A59"/><path fill-rule="evenodd" clip-rule="evenodd" d="M100.7 14.97c0 3.47-.97 5.9-2.87 7.42-1.57 1.19-3.84 1.78-6.77 1.78-3.3 0-5.73-.7-7.3-2.05-1.73-1.52-2.6-3.95-2.6-7.3 0-2.77.76-4.94 2.33-6.45 1.67-1.68 4.16-2.49 7.52-2.49 3.68 0 6.23.81 7.74 2.38 1.3 1.4 1.95 3.63 1.95 6.71Zm-4.55-.1a6.6 6.6 0 0 0-1.24-4.17c-.92-1.14-2.33-1.74-4.12-1.74-1.78 0-3.14.6-4.06 1.85a6.62 6.62 0 0 0-1.13 4c0 1.9.32 3.3.92 4.22.86 1.25 2.38 1.9 4.7 1.9 1.96 0 3.3-.6 4.07-1.84.6-.87.86-2.33.86-4.23Z" fill="#F95A59"/><path fill-rule="evenodd" clip-rule="evenodd" d="M118.5 16.49h-12.23v7.36h-4.38V12.97c0-.65.1-1.4.38-2.22a5.74 5.74 0 0 1 2.76-3.3c1.57-.87 4.17-1.3 7.74-1.3h22.9v2.98h-6.6v14.72h-4.12V9.13c-4.22 0-8.23-.06-12.45-.06-1.63 0-2.76.11-3.41.27-1.14.27-1.9.92-2.38 1.84-.38.7-.54 1.47-.54 2.33h12.34v2.98Z" fill="#F95A59"/></g><defs><clipPath id="clip0_1642_1501"><rect width="135" height="30" fill="white" transform="translate(.94)"/></clipPath></defs></svg>