<svg xmlns="http://www.w3.org/2000/svg"><style>:root svg:not(:target){display:none}</style><svg viewBox="0 0 42 42" fill="none" id="arrow-in-circle"><path fill-rule="evenodd" clip-rule="evenodd" d="M21 37.19A16.19 16.19 0 1 0 21 4.8a16.19 16.19 0 0 0 0 32.38Z" stroke="white" stroke-width="1.5" stroke-linecap="round" stroke-linejoin="round"></path><path d="m18.48 27.07 6.1-6.07-6.1-6.07" stroke="white" stroke-width="1.5" stroke-linecap="round" stroke-linejoin="round"></path></svg><svg viewBox="0 0 62 24" fill="none" id="burger"><path d="M2 2h39" stroke="#1D1D1D" stroke-width="4" stroke-linecap="round"></path><path d="M2 12h58" stroke="#1D1D1D" stroke-width="4" stroke-linecap="round"></path><path d="M2 22h39" stroke="#1D1D1D" stroke-width="4" stroke-linecap="round"></path></svg><svg viewBox="0 0 75 79" fill="none" id="icon-google"><path d="M67.05 33.42c.38 2.17.6 4.44.6 6.8 0 18.52-11.77 31.68-29.53 31.68a29.4 29.4 0 0 1-11.78-2.46 30.7 30.7 0 0 1-9.98-7.02A32.64 32.64 0 0 1 9.69 51.9a33.9 33.9 0 0 1 0-24.8 32.56 32.56 0 0 1 6.67-10.52c2.86-3 6.25-5.4 9.98-7.02A29.4 29.4 0 0 1 38.12 7.1c8.3 0 15.24 3.22 20.57 8.44l-8.67 9.14v-.03a16.4 16.4 0 0 0-11.9-4.9c-10.15 0-18.4 9.04-18.4 19.73 0 10.7 8.25 19.74 18.4 19.74 9.2 0 15.47-5.54 16.76-13.16H38.12V33.42h28.93Z" fill="black"></path></svg><svg viewBox="0 0 133 133" fill="none" id="icon-yandex"><path d="M10.54 90.6V74.8L0 46.54h5.3l7.75 21.82L22 41.97h4.88L15.39 75v15.6h-4.85Zm31.24 0H37.7a15.8 15.8 0 0 1-.42-2.48H37a6.97 6.97 0 0 1-5.84 2.9c-4.42 0-7.45-3.33-7.45-9.43 0-6.65 3.4-10.85 12.1-10.85h.67V68.9c0-4.07-1.36-5.8-4.07-5.8-2.47 0-4.57 1.3-6.17 2.7l-.93-4.24a12.46 12.46 0 0 1 7.4-2.46c5.5 0 8.51 2.34 8.51 9.87v14.6c0 2.95.3 5.56.54 7.03h.03ZM36.5 74.4h-.57c-6 0-7.27 2.64-7.27 6.65 0 3.57 1.17 5.9 3.61 5.9a5.3 5.3 0 0 0 4.2-2.46l.03-10.09Zm15.52 16.2h-4.8V59.43h4.8v2.73h.3a8.19 8.19 0 0 1 6.1-3.08c4.07 0 6.22 2.28 6.22 7.02v24.48h-4.87V66.54c0-2.34-1.04-3.16-2.9-3.16-2.02 0-3.72 1.56-4.85 3.1v24.11ZM69.4 76.23c0-11.54 4.3-17.14 10.52-17.14 1.5 0 3.03.5 3.96 1.17V46.54h4.8v44.05h-3.57l-.38-2.47h-.3c-1.35 1.73-3.08 2.9-5.61 2.9-6.1 0-9.42-5.17-9.42-14.78ZM83.89 64.5a4.71 4.71 0 0 0-3.65-1.48c-3.87 0-5.73 5.87-5.73 12.21 0 7.28 1.36 11.7 4.9 11.7 2.4 0 3.67-1.16 4.48-2.39V64.51Zm19.97 26.52c-6.4 0-10.37-5.11-10.37-14.66 0-10 2.77-17.28 9.37-17.28 5.18 0 8.55 3.88 8.55 14.45v2.64H98.5c0 7.03 1.98 10.71 5.8 10.71 2.71 0 4.7-1.2 5.92-2.07l1.12 3.67a11.79 11.79 0 0 1-7.47 2.54Zm-5.3-18.82h7.94c0-5.3-.86-9.17-3.64-9.17-2.94 0-3.97 3.63-4.32 9.17h.02Zm33.77-12.68-5.78 14.55L133 90.6h-4.97l-4.84-12.82-4.67 12.82h-4.74l6.47-16.1-5.87-14.97h5l4.03 11.28 4.24-11.28h4.68Z" fill="black"></path></svg></svg>