<svg xmlns="http://www.w3.org/2000/svg"><style>:root svg:not(:target){display:none}</style><svg viewBox="0 0 42 42" fill="none" id="arrow-in-circle"><path fill-rule="evenodd" clip-rule="evenodd" d="M21 37.19A16.19 16.19 0 1 0 21 4.8a16.19 16.19 0 0 0 0 32.38Z" stroke="white" stroke-width="1.5" stroke-linecap="round" stroke-linejoin="round"></path><path d="m18.48 27.07 6.1-6.07-6.1-6.07" stroke="white" stroke-width="1.5" stroke-linecap="round" stroke-linejoin="round"></path></svg><svg viewBox="0 0 62 24" fill="none" id="burger"><path d="M2 2h39" stroke="#1D1D1D" stroke-width="4" stroke-linecap="round"></path><path d="M2 12h58" stroke="#1D1D1D" stroke-width="4" stroke-linecap="round"></path><path d="M2 22h39" stroke="#1D1D1D" stroke-width="4" stroke-linecap="round"></path></svg><svg viewBox="0 0 75 79" fill="none" id="icon-google"><path d="M67.05 33.42c.38 2.17.6 4.44.6 6.8 0 18.52-11.77 31.68-29.53 31.68a29.4 29.4 0 0 1-11.78-2.46 30.7 30.7 0 0 1-9.98-7.02A32.64 32.64 0 0 1 9.69 51.9a33.9 33.9 0 0 1 0-24.8 32.56 32.56 0 0 1 6.67-10.52c2.86-3 6.25-5.4 9.98-7.02A29.4 29.4 0 0 1 38.12 7.1c8.3 0 15.24 3.22 20.57 8.44l-8.67 9.14v-.03a16.4 16.4 0 0 0-11.9-4.9c-10.15 0-18.4 9.04-18.4 19.73 0 10.7 8.25 19.74 18.4 19.74 9.2 0 15.47-5.54 16.76-13.16H38.12V33.42h28.93Z" fill="black"></path></svg><svg viewBox="0 0 25 25" fill="none" id="icon-people"><path fill-rule="evenodd" clip-rule="evenodd" d="M12.06 13.23a8.01 8.01 0 0 0-7.94 7c-.07.55.39 1 .94 1 .55 0 .99-.45 1.08-1a6.01 6.01 0 0 1 11.84 0c.09.55.53 1 1.08 1s1-.45.94-1c-.5-3.94-3.87-7-7.94-7Z" fill="#34AADD"></path><path d="M12.06 11.23a4 4 0 1 0-.01-8 4 4 0 0 0 0 8" stroke="#34AADD" stroke-width="2"></path></svg><svg viewBox="0 0 24 24" fill="none" id="icon-search"><path d="m20 20-4.9-4.9m0 0a6.5 6.5 0 1 0-9.2-9.2 6.5 6.5 0 0 0 9.2 9.2Z" stroke="#768298" stroke-width="1.8" stroke-linecap="round" stroke-linejoin="round"></path></svg><svg viewBox="0 0 133 133" fill="none" id="icon-yandex"><path d="M10.54 90.6V74.8L0 46.54h5.3l7.75 21.82L22 41.97h4.88L15.39 75v15.6h-4.85Zm31.24 0H37.7a15.8 15.8 0 0 1-.42-2.48H37a6.97 6.97 0 0 1-5.84 2.9c-4.42 0-7.45-3.33-7.45-9.43 0-6.65 3.4-10.85 12.1-10.85h.67V68.9c0-4.07-1.36-5.8-4.07-5.8-2.47 0-4.57 1.3-6.17 2.7l-.93-4.24a12.46 12.46 0 0 1 7.4-2.46c5.5 0 8.51 2.34 8.51 9.87v14.6c0 2.95.3 5.56.54 7.03h.03ZM36.5 74.4h-.57c-6 0-7.27 2.64-7.27 6.65 0 3.57 1.17 5.9 3.61 5.9a5.3 5.3 0 0 0 4.2-2.46l.03-10.09Zm15.52 16.2h-4.8V59.43h4.8v2.73h.3a8.19 8.19 0 0 1 6.1-3.08c4.07 0 6.22 2.28 6.22 7.02v24.48h-4.87V66.54c0-2.34-1.04-3.16-2.9-3.16-2.02 0-3.72 1.56-4.85 3.1v24.11ZM69.4 76.23c0-11.54 4.3-17.14 10.52-17.14 1.5 0 3.03.5 3.96 1.17V46.54h4.8v44.05h-3.57l-.38-2.47h-.3c-1.35 1.73-3.08 2.9-5.61 2.9-6.1 0-9.42-5.17-9.42-14.78ZM83.89 64.5a4.71 4.71 0 0 0-3.65-1.48c-3.87 0-5.73 5.87-5.73 12.21 0 7.28 1.36 11.7 4.9 11.7 2.4 0 3.67-1.16 4.48-2.39V64.51Zm19.97 26.52c-6.4 0-10.37-5.11-10.37-14.66 0-10 2.77-17.28 9.37-17.28 5.18 0 8.55 3.88 8.55 14.45v2.64H98.5c0 7.03 1.98 10.71 5.8 10.71 2.71 0 4.7-1.2 5.92-2.07l1.12 3.67a11.79 11.79 0 0 1-7.47 2.54Zm-5.3-18.82h7.94c0-5.3-.86-9.17-3.64-9.17-2.94 0-3.97 3.63-4.32 9.17h.02Zm33.77-12.68-5.78 14.55L133 90.6h-4.97l-4.84-12.82-4.67 12.82h-4.74l6.47-16.1-5.87-14.97h5l4.03 11.28 4.24-11.28h4.68Z" fill="black"></path></svg><svg viewBox="0 0 136 30" fill="none" id="logo"><g clip-path="url(#logo_0)"><path fill-rule="evenodd" clip-rule="evenodd" d="M15.59.08a14.92 14.92 0 0 1 14.74 18.86 2.5 2.5 0 1 1-4.8-1.31 9.94 9.94 0 1 0-9.73 7.3 2.5 2.5 0 0 1-.08 5A14.92 14.92 0 0 1 6.98 3.06l1.5 2-1.5-2a14.92 14.92 0 0 1 8.6-2.99Z" fill="#121920"></path><path d="M27.16 24.71a3.78 3.78 0 1 1-7.56 0 3.78 3.78 0 0 1 7.56 0Z" fill="#F95A59"></path><path fill-rule="evenodd" clip-rule="evenodd" d="M61.46 23.96h-4.98l-.7-.92c-.98.38-1.85.65-2.6.86-.76.17-1.57.27-2.5.27-3.03 0-5.4-.75-7.09-2.21-1.78-1.52-2.65-3.85-2.65-6.82 0-3.04.81-5.36 2.38-6.93 1.63-1.57 4.06-2.38 7.37-2.38 3.19 0 5.62.86 7.3 2.54A7.63 7.63 0 0 1 60.16 14c0 1.68-.06 2.92-.22 3.68a8.17 8.17 0 0 1-1.51 3.36l3.03 2.92Zm-5.69-8.99a6.8 6.8 0 0 0-1.03-3.95c-.86-1.3-2.27-1.95-4.1-1.95-1.74 0-3.1.49-3.96 1.52-.87.97-1.3 2.43-1.3 4.33 0 2.11.49 3.68 1.52 4.65.92.87 2.27 1.3 4.06 1.3 1.62 0 2.81-.48 3.62-1.46.81-1.03 1.2-2.49 1.2-4.44Z" fill="#F95A59"></path><path fill-rule="evenodd" clip-rule="evenodd" d="M80.24 18.38a5.5 5.5 0 0 1-1.57 3.95 5.14 5.14 0 0 1-3.95 1.57H62.27v-3.19H72.6c.7 0 1.3-.16 1.73-.49.54-.38.81-.86.81-1.51 0-1.52-1.08-2.28-3.2-2.28h-5.19a6.09 6.09 0 0 1-3.95-1.4 4.36 4.36 0 0 1-1.68-3.58c0-1.57.54-2.86 1.68-3.84a6.31 6.31 0 0 1 4.38-1.46h11.97v3.03h-10.6c-.49 0-.98.22-1.4.6-.55.38-.77.86-.77 1.4 0 .6.22 1.14.7 1.52.5.43 1.03.6 1.68.6h5.74c1.79 0 3.2.48 4.22 1.4a4.7 4.7 0 0 1 1.52 3.68Z" fill="#F95A59"></path><path fill-rule="evenodd" clip-rule="evenodd" d="M100.7 14.97c0 3.47-.97 5.9-2.87 7.42-1.57 1.19-3.84 1.78-6.77 1.78-3.3 0-5.73-.7-7.3-2.05-1.73-1.52-2.6-3.95-2.6-7.3 0-2.77.76-4.94 2.33-6.45 1.67-1.68 4.16-2.49 7.52-2.49 3.68 0 6.23.81 7.74 2.38 1.3 1.4 1.95 3.63 1.95 6.71Zm-4.55-.1a6.6 6.6 0 0 0-1.24-4.17c-.92-1.14-2.33-1.74-4.12-1.74-1.78 0-3.14.6-4.06 1.85a6.62 6.62 0 0 0-1.13 4c0 1.9.32 3.3.92 4.22.86 1.25 2.38 1.9 4.7 1.9 1.96 0 3.3-.6 4.07-1.84.6-.87.86-2.33.86-4.23Z" fill="#F95A59"></path><path fill-rule="evenodd" clip-rule="evenodd" d="M118.5 16.49h-12.23v7.36h-4.38V12.97c0-.65.1-1.4.38-2.22a5.74 5.74 0 0 1 2.76-3.3c1.57-.87 4.17-1.3 7.74-1.3h22.9v2.98h-6.6v14.72h-4.12V9.13c-4.22 0-8.23-.06-12.45-.06-1.63 0-2.76.11-3.41.27-1.14.27-1.9.92-2.38 1.84-.38.7-.54 1.47-.54 2.33h12.34v2.98Z" fill="#F95A59"></path></g><defs><clipPath id="logo_0"><rect width="135" height="30" fill="white" transform="translate(.94)"></rect></clipPath></defs></svg></svg>